<svg xmlns="http://www.w3.org/2000/svg" viewBox="0 0 24 24" width="64" height="64">
  <!-- Background circle -->
  <circle cx="12" cy="12" r="11" fill="#2e7d32" />
  
  <!-- Leaf shape -->
  <path d="M17.5,4.5c-2.5,0-5.5,1-7.5,3c-2-2-5-3-7.5-3c0,0,0,10,7.5,14c7.5-4,7.5-14,7.5-14z" fill="#60ad5e" />
  
  <!-- Stem -->
  <path d="M10,7.5v9" stroke="#005005" stroke-width="1.5" stroke-linecap="round" />
  
  <!-- Small leaves -->
  <path d="M10,12c-1.5-1-3-1-4,0c1,1,2.5,1,4,0" fill="#60ad5e" />
  <path d="M10,15c1.5-1,3-1,4,0c-1,1-2.5,1-4,0" fill="#60ad5e" />
  
  <!-- Sun rays -->
  <circle cx="16" cy="8" r="1.5" fill="#ffd95a" />
  <path d="M16,6v-1.5" stroke="#ffd95a" stroke-width="1" stroke-linecap="round" />
  <path d="M16,11.5v-1.5" stroke="#ffd95a" stroke-width="1" stroke-linecap="round" />
  <path d="M14,8h-1.5" stroke="#ffd95a" stroke-width="1" stroke-linecap="round" />
  <path d="M19.5,8h-1.5" stroke="#ffd95a" stroke-width="1" stroke-linecap="round" />
</svg>